<?xml version="1.0" standalone="no"?>
<svg xmlns:xlink="http://www.w3.org/1999/xlink" id="wave" style="transform:rotate(0deg); transition: 0.3s" viewBox="0 0 1440 490" version="1.1" xmlns="http://www.w3.org/2000/svg"><defs><linearGradient id="sw-gradient-0" x1="0" x2="0" y1="1" y2="0"><stop stop-color="rgba(204, 0, 0, 1)" offset="0%"/><stop stop-color="rgba(204, 0, 0, 0.5803921568627451)" offset="100%"/></linearGradient></defs><path style="transform:translate(0, 0px); opacity:1" fill="url(#sw-gradient-0)" d="M0,0L34.3,57.2C68.6,114,137,229,206,261.3C274.3,294,343,245,411,212.3C480,180,549,163,617,155.2C685.7,147,754,147,823,179.7C891.4,212,960,278,1029,269.5C1097.1,261,1166,180,1234,179.7C1302.9,180,1371,261,1440,285.8C1508.6,310,1577,278,1646,236.8C1714.3,196,1783,147,1851,147C1920,147,1989,196,2057,179.7C2125.7,163,2194,82,2263,81.7C2331.4,82,2400,163,2469,204.2C2537.1,245,2606,245,2674,204.2C2742.9,163,2811,82,2880,65.3C2948.6,49,3017,98,3086,155.2C3154.3,212,3223,278,3291,285.8C3360,294,3429,245,3497,196C3565.7,147,3634,98,3703,114.3C3771.4,131,3840,212,3909,253.2C3977.1,294,4046,294,4114,310.3C4182.9,327,4251,359,4320,326.7C4388.6,294,4457,196,4526,163.3C4594.3,131,4663,163,4731,187.8C4800,212,4869,229,4903,236.8L4937.1,245L4937.1,490L4902.9,490C4868.6,490,4800,490,4731,490C4662.9,490,4594,490,4526,490C4457.1,490,4389,490,4320,490C4251.4,490,4183,490,4114,490C4045.7,490,3977,490,3909,490C3840,490,3771,490,3703,490C3634.3,490,3566,490,3497,490C3428.6,490,3360,490,3291,490C3222.9,490,3154,490,3086,490C3017.1,490,2949,490,2880,490C2811.4,490,2743,490,2674,490C2605.7,490,2537,490,2469,490C2400,490,2331,490,2263,490C2194.3,490,2126,490,2057,490C1988.6,490,1920,490,1851,490C1782.9,490,1714,490,1646,490C1577.1,490,1509,490,1440,490C1371.4,490,1303,490,1234,490C1165.7,490,1097,490,1029,490C960,490,891,490,823,490C754.3,490,686,490,617,490C548.6,490,480,490,411,490C342.9,490,274,490,206,490C137.1,490,69,490,34,490L0,490Z"/></svg>